<?xml version="1.0" standalone="no"?>
<!DOCTYPE svg PUBLIC "-//W3C//DTD SVG 20010904//EN"
 "http://www.w3.org/TR/2001/REC-SVG-20010904/DTD/svg10.dtd">
<svg version="1.0" xmlns="http://www.w3.org/2000/svg"
 width="483.000000pt" height="362.000000pt" viewBox="0 0 483.000000 362.000000"
 preserveAspectRatio="xMidYMid meet">

<g transform="translate(0.000000,362.000000) scale(0.100000,-0.100000)"
fill="#000000" stroke="none">
<path d="M1906 2873 c-3 -4 -6 -158 -6 -344 0 -313 -1 -338 -17 -343 -10 -3
-56 -10 -103 -15 -675 -82 -670 -81 -702 -93 l-28 -10 0 -108 0 -107 -31 -7
c-17 -3 -48 -6 -68 -6 -79 0 -82 -4 -79 -88 l3 -75 103 2 c57 1 110 5 118 8
12 4 14 -31 14 -235 0 -133 -3 -243 -7 -245 -5 -3 -70 -2 -145 0 -114 5 -138
8 -138 21 0 14 35 65 72 106 19 20 23 36 11 36 -4 0 -24 -16 -44 -36 l-37 -36
5 103 c2 58 0 110 -5 118 -18 26 -32 0 -32 -60 0 -44 -4 -59 -14 -59 -8 0 -16
7 -20 15 -3 8 -12 15 -20 15 -18 0 -12 -20 21 -70 13 -19 23 -48 23 -64 l0
-30 -38 37 c-65 63 -72 45 -12 -31 22 -27 40 -53 40 -56 0 -3 -44 -6 -99 -6
-80 0 -101 3 -112 17 -28 33 -93 73 -120 73 -45 0 -80 -21 -86 -51 -4 -19 -14
-29 -37 -36 -28 -8 -31 -13 -34 -51 l-3 -42 2155 0 2156 0 0 39 c0 38 0 38
-46 45 -26 3 -111 6 -190 6 -79 0 -144 3 -144 8 0 4 16 24 36 45 39 41 39 65
1 29 -31 -29 -37 -28 -37 10 0 18 11 45 25 64 36 47 32 73 -6 39 -15 -15 -17
-14 -23 10 -4 14 -10 25 -15 25 -9 0 -21 -48 -21 -89 -1 -22 -2 -24 -11 -8 -5
9 -17 17 -25 17 -13 0 -11 -9 10 -46 34 -61 34 -90 0 -46 -25 31 -44 41 -44
23 0 -5 6 -16 13 -23 8 -7 19 -23 26 -36 11 -21 10 -22 -24 -22 l-35 0 0 108
c0 59 -3 144 -7 190 l-6 82 47 0 46 0 0 79 0 78 -46 7 c-26 3 -71 6 -100 6
l-54 0 0 229 0 229 -67 22 c-38 12 -93 33 -123 45 -30 13 -120 44 -200 68
-168 52 -581 182 -855 269 -329 104 -348 110 -420 133 -38 13 -131 41 -205 64
-74 23 -145 46 -157 51 -11 5 -24 6 -27 3z m409 -584 c4 -28 3 -55 -1 -59 -5
-5 -44 -11 -87 -15 l-78 -7 3 58 c3 59 3 59 38 65 19 4 54 7 77 8 l41 1 7 -51z
m910 -64 c149 -14 351 -32 450 -40 99 -9 192 -18 208 -21 l27 -6 0 -194 0
-194 -44 0 c-24 0 -58 3 -75 6 l-31 7 0 113 c0 65 -4 115 -10 119 -6 4 -72 13
-148 20 -75 8 -195 21 -267 28 -95 11 -132 11 -137 3 -4 -6 -8 -69 -8 -139 l0
-129 -97 3 c-87 2 -219 -7 -433 -29 l-65 -7 -3 -75 -3 -75 56 3 55 4 0 -211 0
-211 -224 0 -224 0 -7 263 c-4 144 -5 309 -3 366 l3 103 -80 -6 c-44 -3 -179
-13 -300 -21 -121 -8 -343 -24 -493 -35 -150 -11 -278 -18 -283 -15 -11 7 -12
165 -1 181 10 16 19 17 657 84 1072 113 1197 126 1205 129 3 0 127 -10 275
-24z m185 -308 l165 -22 3 -57 3 -58 -68 0 c-37 0 -119 3 -180 7 l-113 6 0 74
c0 52 4 73 13 73 6 -1 86 -11 177 -23z m-1240 -448 l0 -270 -117 3 -118 3 -3
262 -2 261 62 6 c84 8 161 12 171 8 4 -2 7 -125 7 -273z m-315 -5 l0 -259
-136 -3 -136 -3 -6 53 c-4 29 -7 133 -7 231 l0 178 -67 -3 -68 -3 -3 -222 -2
-221 -73 -7 c-39 -4 -94 -5 -122 -3 l-50 3 -3 241 -2 242 52 6 c29 3 154 10
278 16 124 6 248 12 275 13 28 2 55 3 60 2 6 -1 10 -96 10 -261z m1075 -44 l0
-210 -95 0 -95 0 0 204 c0 236 -13 212 118 215 l72 1 0 -210z m138 -2 l2 -208
-45 0 -45 0 0 203 c0 112 3 207 7 211 4 4 23 6 43 4 l35 -3 3 -207z m325 196
l37 -7 0 -162 c0 -90 -3 -170 -6 -179 -5 -13 -25 -16 -110 -16 -97 0 -104 -1
-104 -20 0 -17 -7 -20 -40 -20 l-40 0 0 205 0 205 113 0 c61 0 129 -3 150 -6z
m157 -180 l0 -175 -32 3 -33 3 -3 160 c-1 87 0 165 2 172 3 7 19 13 36 13 l30
0 0 -176z m190 -4 l0 -170 -65 0 -65 0 0 170 0 170 65 0 65 0 0 -170z m278 -6
l2 -162 -35 -4 -35 -4 0 169 0 168 33 -3 32 -3 3 -161z m2 -204 c0 -5 -13 -10
-30 -10 -16 0 -30 5 -30 10 0 6 14 10 30 10 17 0 30 -4 30 -10z"/>
<path d="M371 705 c-55 -17 -98 -58 -113 -107 -9 -31 -8 -45 6 -80 22 -57 51
-76 159 -104 99 -25 128 -43 108 -68 -30 -36 -126 -26 -155 16 -14 20 -16 20
-64 4 -70 -24 -77 -35 -47 -78 36 -53 95 -78 185 -78 127 0 200 54 200 148 0
89 -34 118 -179 158 -95 26 -111 40 -80 67 32 26 94 22 125 -8 l25 -25 50 21
c27 12 49 28 49 36 0 28 -65 81 -120 97 -64 19 -90 19 -149 1z"/>
<path d="M1090 691 c-18 -35 -180 -455 -180 -469 0 -10 16 -12 61 -10 l61 3
18 45 18 45 93 0 93 0 17 -45 17 -45 61 -3 c47 -2 61 0 61 11 0 16 -153 414
-176 459 -13 26 -19 28 -74 28 -48 0 -61 -4 -70 -19z m98 -220 c11 -27 18 -52
14 -55 -3 -3 -23 -6 -44 -6 -27 0 -38 4 -38 15 0 21 31 95 40 95 4 0 17 -22
28 -49z"/>
<path d="M1669 623 c0 -49 -1 -160 -2 -248 l-2 -160 58 -3 57 -3 0 60 c0 52 4
65 28 92 l29 32 67 -92 68 -91 74 0 c41 0 74 2 74 5 0 3 -41 60 -90 125 -50
66 -93 127 -96 135 -6 16 30 66 123 167 29 32 53 60 53 63 0 3 -36 5 -79 5
l-79 0 -79 -89 c-43 -49 -81 -87 -85 -84 -5 2 -8 42 -8 89 l0 84 -55 0 -55 0
-1 -87z"/>
<path d="M2565 700 c-10 -16 -185 -472 -185 -482 0 -4 27 -8 60 -8 l60 0 22
48 23 47 88 3 88 3 21 -51 21 -50 63 0 c35 0 64 2 64 4 0 8 -149 395 -177 459
l-16 37 -63 0 c-35 0 -66 -5 -69 -10z m114 -277 c1 -9 -14 -13 -44 -13 -25 0
-45 5 -45 11 0 6 10 33 22 62 l22 51 22 -50 c13 -27 23 -55 23 -61z"/>
<path d="M3140 460 l0 -250 55 0 55 0 0 133 c0 72 4 138 9 146 6 9 26 -16 69
-90 33 -57 72 -123 86 -147 l26 -42 70 0 70 0 0 250 0 250 -55 0 -55 0 -1
-127 c-1 -71 -1 -133 0 -140 5 -42 -27 -4 -100 120 l-85 142 -72 3 -72 3 0
-251z"/>
<path d="M3840 702 c0 -5 38 -73 85 -151 l84 -142 3 -97 3 -97 55 0 55 0 3 97
3 97 84 141 c47 77 85 145 85 150 0 6 -24 10 -54 10 l-54 0 -57 -95 c-31 -53
-61 -95 -66 -93 -5 2 -32 44 -62 93 l-52 90 -58 3 c-31 2 -57 -1 -57 -6z"/>
</g>
</svg>
